# Blender 3.6.1
# www.blender.org
mtllib Player.mtl
o Circle
v 0.000000 0.000000 -1.000000
v -0.866025 0.000000 1.512409
v 0.866025 0.000000 1.512409
v -0.866025 0.869698 1.512409
v 0.000000 0.869698 -1.000000
v 0.866025 0.869698 1.512409
vn -0.0000 -1.0000 -0.0000
vn -0.0000 1.0000 -0.0000
vn 0.9454 -0.0000 -0.3259
vn -0.0000 -0.0000 1.0000
vn -0.9454 -0.0000 -0.3259
vt 0.000000 0.000000
s 0
f 2/1/1 1/1/1 3/1/1
f 4/1/2 6/1/2 5/1/2
f 3/1/3 1/1/3 5/1/3 6/1/3
f 2/1/4 3/1/4 6/1/4 4/1/4
f 1/1/5 2/1/5 4/1/5 5/1/5
